<svg width="1710" height="232" viewBox="0 0 1710 232" fill="none" xmlns="http://www.w3.org/2000/svg">
<g filter="url(#filter0_b_255_308)">
<mask id="path-1-inside-1_255_308" fill="white">
<path d="M1710 0V206.882H1283.5L1216.57 232H0L0 41.2274L92.4206 0H1710Z"/>
</mask>
<path d="M1710 0V206.882H1283.5L1216.57 232H0L0 41.2274L92.4206 0H1710Z" fill="white" fill-opacity="0.05"/>
<path d="M1710 0V206.882H1283.5L1216.57 232H0L0 41.2274L92.4206 0H1710Z" stroke="url(#paint0_linear_255_308)" stroke-opacity="0.6" stroke-width="2" mask="url(#path-1-inside-1_255_308)"/>
<path d="M1710 0V206.882H1283.5L1216.57 232H0L0 41.2274L92.4206 0H1710Z" stroke="url(#paint1_linear_255_308)" stroke-opacity="0.6" stroke-width="2" mask="url(#path-1-inside-1_255_308)"/>
</g>
<mask id="mask0_255_308" style="mask-type:alpha" maskUnits="userSpaceOnUse" x="0" y="0" width="1710" height="232">
<mask id="path-2-inside-2_255_308" fill="white">
<path d="M1710 0V206.882H1282L1215.07 232H0L0 41.2274L92.4206 0H1710Z"/>
</mask>
<path d="M1710 0V206.882H1282L1215.07 232H0L0 41.2274L92.4206 0H1710Z" fill="white" fill-opacity="0.05"/>
<path d="M1710 0V206.882H1282L1215.07 232H0L0 41.2274L92.4206 0H1710Z" stroke="url(#paint2_linear_255_308)" stroke-opacity="0.6" stroke-width="2" mask="url(#path-2-inside-2_255_308)"/>
<path d="M1710 0V206.882H1282L1215.07 232H0L0 41.2274L92.4206 0H1710Z" stroke="url(#paint3_linear_255_308)" stroke-opacity="0.6" stroke-width="2" mask="url(#path-2-inside-2_255_308)"/>
</mask>
<g mask="url(#mask0_255_308)">
<g opacity="0.25" filter="url(#filter1_f_255_308)">
<circle cx="1800.5" cy="-76.5" r="467.5" fill="#0E9F6E"/>
<circle cx="1800.5" cy="-76.5" r="467" stroke="black"/>
</g>
</g>
<defs>
<filter id="filter0_b_255_308" x="-15" y="-15" width="1740" height="262" filterUnits="userSpaceOnUse" color-interpolation-filters="sRGB">
<feFlood flood-opacity="0" result="BackgroundImageFix"/>
<feGaussianBlur in="BackgroundImageFix" stdDeviation="7.5"/>
<feComposite in2="SourceAlpha" operator="in" result="effect1_backgroundBlur_255_308"/>
<feBlend mode="normal" in="SourceGraphic" in2="effect1_backgroundBlur_255_308" result="shape"/>
</filter>
<filter id="filter1_f_255_308" x="929" y="-948" width="1743" height="1743" filterUnits="userSpaceOnUse" color-interpolation-filters="sRGB">
<feFlood flood-opacity="0" result="BackgroundImageFix"/>
<feBlend mode="normal" in="SourceGraphic" in2="BackgroundImageFix" result="shape"/>
<feGaussianBlur stdDeviation="202" result="effect1_foregroundBlur_255_308"/>
</filter>
<linearGradient id="paint0_linear_255_308" x1="-16" y1="-1.8805e-06" x2="306.146" y2="-120.703" gradientUnits="userSpaceOnUse">
<stop stop-color="white"/>
<stop offset="1" stop-color="white" stop-opacity="0"/>
</linearGradient>
<linearGradient id="paint1_linear_255_308" x1="1805" y1="345.716" x2="1393.17" y2="-64.7151" gradientUnits="userSpaceOnUse">
<stop stop-color="white"/>
<stop offset="1" stop-color="white" stop-opacity="0"/>
</linearGradient>
<linearGradient id="paint2_linear_255_308" x1="-16" y1="-1.8805e-06" x2="306.146" y2="-120.703" gradientUnits="userSpaceOnUse">
<stop stop-color="white"/>
<stop offset="1" stop-color="white" stop-opacity="0"/>
</linearGradient>
<linearGradient id="paint3_linear_255_308" x1="1805" y1="345.716" x2="1393.17" y2="-64.7151" gradientUnits="userSpaceOnUse">
<stop stop-color="white"/>
<stop offset="1" stop-color="white" stop-opacity="0"/>
</linearGradient>
</defs>
</svg>
