<svg width="1460" height="696" viewBox="0 0 1460 696" fill="none" xmlns="http://www.w3.org/2000/svg">
<g filter="url(#filter0_b_255_561)">
<mask id="path-1-inside-1_255_561" fill="white">
<path d="M0 31.0295V321.841L44.015 351.788H709.243L778.267 395.807V656.311V696L1404.48 696L1460 656.311L1460 64.1833V0L44.015 4.79576e-05L0 31.0295Z"/>
</mask>
<path d="M0 31.0295V321.841L44.015 351.788H709.243L778.267 395.807V656.311V696L1404.48 696L1460 656.311L1460 64.1833V0L44.015 4.79576e-05L0 31.0295Z" fill="white" fill-opacity="0.05"/>
<path d="M0 31.0295V321.841L44.015 351.788H709.243L778.267 395.807V656.311V696L1404.48 696L1460 656.311L1460 64.1833V0L44.015 4.79576e-05L0 31.0295Z" stroke="url(#paint0_linear_255_561)" stroke-width="2" mask="url(#path-1-inside-1_255_561)"/>
<path d="M0 31.0295V321.841L44.015 351.788H709.243L778.267 395.807V656.311V696L1404.48 696L1460 656.311L1460 64.1833V0L44.015 4.79576e-05L0 31.0295Z" stroke="url(#paint1_linear_255_561)" stroke-width="2" mask="url(#path-1-inside-1_255_561)"/>
</g>
<defs>
<filter id="filter0_b_255_561" x="-10" y="-10" width="1480" height="716" filterUnits="userSpaceOnUse" color-interpolation-filters="sRGB">
<feFlood flood-opacity="0" result="BackgroundImageFix"/>
<feGaussianBlur in="BackgroundImageFix" stdDeviation="5"/>
<feComposite in2="SourceAlpha" operator="in" result="effect1_backgroundBlur_255_561"/>
<feBlend mode="normal" in="SourceGraphic" in2="effect1_backgroundBlur_255_561" result="shape"/>
</filter>
<linearGradient id="paint0_linear_255_561" x1="1619.05" y1="604.355" x2="1165.32" y2="66.5069" gradientUnits="userSpaceOnUse">
<stop stop-color="white"/>
<stop offset="1" stop-color="white" stop-opacity="0"/>
</linearGradient>
<linearGradient id="paint1_linear_255_561" x1="-331.113" y1="46.1836" x2="266.251" y2="379.756" gradientUnits="userSpaceOnUse">
<stop stop-color="white"/>
<stop offset="1" stop-color="white" stop-opacity="0"/>
</linearGradient>
</defs>
</svg>
