<svg width="529" height="348" viewBox="0 0 529 348" fill="none" xmlns="http://www.w3.org/2000/svg">
<g filter="url(#filter0_b_282_1556)">
<mask id="path-1-inside-1_282_1556" fill="white">
<path d="M0 15.5148V160.921L15.9479 175.894H256.979L281.988 197.904V328.156V348L508.884 348L529 328.156L529 32.0917V0L15.9479 2.39788e-05L0 15.5148Z"/>
</mask>
<path d="M0 15.5148V160.921L15.9479 175.894H256.979L281.988 197.904V328.156V348L508.884 348L529 328.156L529 32.0917V0L15.9479 2.39788e-05L0 15.5148Z" fill="white" fill-opacity="0.05"/>
<path d="M0 15.5148V160.921L15.9479 175.894H256.979L281.988 197.904V328.156V348L508.884 348L529 328.156L529 32.0917V0L15.9479 2.39788e-05L0 15.5148Z" stroke="url(#paint0_linear_282_1556)" stroke-width="2" mask="url(#path-1-inside-1_282_1556)"/>
<path d="M0 15.5148V160.921L15.9479 175.894H256.979L281.988 197.904V328.156V348L508.884 348L529 328.156L529 32.0917V0L15.9479 2.39788e-05L0 15.5148Z" stroke="url(#paint1_linear_282_1556)" stroke-width="2" mask="url(#path-1-inside-1_282_1556)"/>
</g>
<defs>
<filter id="filter0_b_282_1556" x="-10" y="-10" width="549" height="368" filterUnits="userSpaceOnUse" color-interpolation-filters="sRGB">
<feFlood flood-opacity="0" result="BackgroundImageFix"/>
<feGaussianBlur in="BackgroundImageFix" stdDeviation="5"/>
<feComposite in2="SourceAlpha" operator="in" result="effect1_backgroundBlur_282_1556"/>
<feBlend mode="normal" in="SourceGraphic" in2="effect1_backgroundBlur_282_1556" result="shape"/>
</filter>
<linearGradient id="paint0_linear_282_1556" x1="586.63" y1="302.177" x2="359.108" y2="106.736" gradientUnits="userSpaceOnUse">
<stop stop-color="white"/>
<stop offset="1" stop-color="white" stop-opacity="0"/>
</linearGradient>
<linearGradient id="paint1_linear_282_1556" x1="-119.972" y1="23.0918" x2="124.01" y2="121.82" gradientUnits="userSpaceOnUse">
<stop stop-color="white"/>
<stop offset="1" stop-color="white" stop-opacity="0"/>
</linearGradient>
</defs>
</svg>
